<svg width="100" height="100" viewBox="0 0 100 100" xmlns="http://www.w3.org/2000/svg">
  <!-- Octagon Background (Full width) -->
  <path d="M30 0 L70 0 L100 30 L100 70 L70 100 L30 100 L0 70 L0 30 Z" fill="black"/>
  
  <!-- Taiji Center (White parts) -->
  <g transform="translate(50, 50) scale(0.6)">
    <circle cx="0" cy="0" r="48" fill="white"/>
    <path d="M 0 -48 A 48 48 0 0 1 0 48 A 24 24 0 0 1 0 0 A 24 24 0 0 0 0 -48" fill="black"/>
    <circle cx="0" cy="-24" r="8" fill="white"/>
    <circle cx="0" cy="24" r="8" fill="black"/>
  </g>

  <!-- Bagua Trigrams (White Lines for visibility on black background) -->
  <g fill="none" stroke="white" stroke-width="4" stroke-linecap="round">
    <!-- Top: Heaven -->
    <g transform="rotate(0, 50, 50) translate(50, 15)">
      <line x1="-12" y1="0" x2="12" y2="0"/>
    </g>
    <!-- Bottom: Earth -->
    <g transform="rotate(180, 50, 50) translate(50, 15)">
      <line x1="-12" y1="0" x2="-3" y2="0"/> <line x1="3" y1="0" x2="12" y2="0"/>
    </g>
    <!-- Right -->
    <g transform="rotate(90, 50, 50) translate(50, 15)">
      <line x1="-12" y1="0" x2="-3" y2="0"/> <line x1="3" y1="0" x2="12" y2="0"/>
    </g>
    <!-- Left -->
    <g transform="rotate(270, 50, 50) translate(50, 15)">
      <line x1="-12" y1="0" x2="12" y2="0"/>
    </g>
  </g>
</svg>
