<svg xmlns="http://www.w3.org/2000/svg" viewBox="0 0 100 100">
  <circle cx="50" cy="50" r="48" fill="white" stroke="black" stroke-width="2"/>
  <path d="M50 2 A48 48 0 0 1 50 98 A24 24 0 0 1 50 50 A24 24 0 0 0 50 2" fill="black"/>
  <circle cx="50" cy="26" r="6" fill="white"/>
  <circle cx="50" cy="74" r="6" fill="black"/>
  <!-- Bagua Trigrams simplified -->
  <g stroke="black" stroke-width="4" fill="none">
    <path d="M40 5 L60 5"/> <path d="M40 12 L60 12"/> <path d="M40 19 L60 19"/>
    <path d="M40 81 L48 81 M52 81 L60 81"/> <path d="M40 88 L48 88 M52 88 L60 88"/> <path d="M40 95 L48 95 M52 95 L60 95"/>
  </g>
</svg>
